#Comment line ignore any data following # character 
#Hierarchical Translation and Rotation (.htr) file 
[Header]	
#Header keywords are followed by a single value 
FileType HTR		#Single word string
DataType HTRS		#Translation followed by rotation and scale data
FileVersion 1		#integer
NumSegments 84		#integer
NumFrames 2		#integer
DataFrameRate 30		#integer, data frame rate in this file
EulerRotationOrder ZYX
CalibrationUnits mm
RotationUnits Degrees
GlobalAxisofGravity Y
BoneLengthAxis Y
ScaleFactor 1.00
[SegmentNames&Hierarchy]
#CHILD	PARENT
MASTER GLOBAL
root MASTER
chest root
L_mid_tent01 root
R_mid_tent01 root
spine01 root
Bip01_Neck chest
L_humerus chest
R_humerus chest
weapon_bone chest
Bip01_Head Bip01_Neck
eye_left_bone Bip01_Head
eye_right_bone Bip01_Head
L_forearm L_humerus
L_front_hand L_forearm
L_weapon_bone L_forearm
L_front_hand01_01 L_front_hand
L_front_hand02_01 L_front_hand
L_front_hand03_01 L_front_hand
L_front_hand01_02 L_front_hand01_01
L_front_hand02_02 L_front_hand02_01
L_front_hand03_02 L_front_hand03_01
R_forearm R_humerus
R_front_hand R_forearm
R_weapon_bone R_forearm
R_front_hand01_01 R_front_hand
R_front_hand02_01 R_front_hand
R_front_hand03_01 R_front_hand
R_front_hand01_02 R_front_hand01_01
R_front_hand02_02 R_front_hand02_01
R_front_hand03_02 R_front_hand03_01
null_rope01_connect L_mid_tent01
Rope1_Seg01 null_rope01_connect
Rope1_Seg02 Rope1_Seg01
Rope1_Seg03 Rope1_Seg02
Rope1_Seg04 Rope1_Seg03
Rope1_Seg05 Rope1_Seg04
Rope1_Seg06 Rope1_Seg05
Rope1_Seg07 Rope1_Seg06
Rope1_Seg09 Rope1_Seg07
L_mid_hand01 Rope1_Seg09
L_mid_hand02 Rope1_Seg09
L_mid_hand03 Rope1_Seg09
null_rope02_connect R_mid_tent01
Rope2_Seg01 null_rope02_connect
Rope2_Seg02 Rope2_Seg01
Rope2_Seg03 Rope2_Seg02
Rope2_Seg04 Rope2_Seg03
Rope2_Seg05 Rope2_Seg04
Rope2_Seg06 Rope2_Seg05
Rope2_Seg07 Rope2_Seg06
Rope2_Seg09 Rope2_Seg07
R_mid_hand01 Rope2_Seg09
R_mid_hand02 Rope2_Seg09
R_mid_hand03 Rope2_Seg09
spine02 spine01
spine03 spine02
pelvis spine03
null_rope03_connect pelvis
null_rope04_connect pelvis
Rope3_Seg01 null_rope03_connect
Rope3_Seg02 Rope3_Seg01
Rope3_Seg03 Rope3_Seg02
Rope3_Seg04 Rope3_Seg03
Rope3_Seg05 Rope3_Seg04
Rope3_Seg06 Rope3_Seg05
Rope3_Seg07 Rope3_Seg06
Rope3_Seg08 Rope3_Seg07
Rope3_Seg09 Rope3_Seg08
R_rear_hand01 Rope3_Seg09
R_rear_hand02 Rope3_Seg09
R_rear_hand03 Rope3_Seg09
Rope4_Seg01 null_rope04_connect
Rope4_Seg02 Rope4_Seg01
Rope4_Seg03 Rope4_Seg02
Rope4_Seg04 Rope4_Seg03
Rope4_Seg05 Rope4_Seg04
Rope4_Seg06 Rope4_Seg05
Rope4_Seg07 Rope4_Seg06
Rope4_Seg08 Rope4_Seg07
Rope4_Seg09 Rope4_Seg08
L_rear_hand01 Rope4_Seg09
L_rear_hand02 Rope4_Seg09
L_rear_hand03 Rope4_Seg09
[BasePosition]
#SegmentName Tx, Ty, Tz, Rx, Ry, Rz, BoneLength
MASTER 0.000000 0.000000 0.000000 -90.000000 0.000000 0.000000 10.000000 
root 0.000000 0.000000 0.000000 0.000000 0.000000 0.000000 10.000000 
chest 0.000000 0.000000 0.000000 0.000000 0.000000 0.000000 10.000000 
L_mid_tent01 0.000000 0.000000 0.000000 0.000000 0.000000 0.000000 10.000000 
R_mid_tent01 0.000000 0.000000 0.000000 0.000000 0.000000 0.000000 10.000000 
spine01 0.000000 0.000000 0.000000 0.000000 0.000000 0.000000 10.000000 
Bip01_Neck 0.000000 0.000000 0.000000 0.000000 0.000000 0.000000 10.000000 
L_humerus 0.000000 0.000000 0.000000 0.000000 0.000000 0.000000 10.000000 
R_humerus 0.000000 0.000000 0.000000 0.000000 0.000000 0.000000 10.000000 
weapon_bone 0.000000 0.000000 0.000000 0.000000 0.000000 0.000000 10.000000 
Bip01_Head 0.000000 0.000000 0.000000 0.000000 0.000000 0.000000 10.000000 
eye_left_bone 0.000000 0.000000 0.000000 0.000000 0.000000 0.000000 10.000000 
eye_right_bone 0.000000 0.000000 0.000000 0.000000 0.000000 0.000000 10.000000 
L_forearm 0.000000 0.000000 0.000000 0.000000 0.000000 0.000000 10.000000 
L_front_hand 0.000000 0.000000 0.000000 0.000000 0.000000 0.000000 10.000000 
L_weapon_bone 0.000000 0.000000 0.000000 0.000000 0.000000 0.000000 10.000000 
L_front_hand01_01 0.000000 0.000000 0.000000 0.000000 0.000000 0.000000 10.000000 
L_front_hand02_01 0.000000 0.000000 0.000000 0.000000 0.000000 0.000000 10.000000 
L_front_hand03_01 0.000000 0.000000 0.000000 0.000000 0.000000 0.000000 10.000000 
L_front_hand01_02 0.000000 0.000000 0.000000 0.000000 0.000000 0.000000 10.000000 
L_front_hand02_02 0.000000 0.000000 0.000000 0.000000 0.000000 0.000000 10.000000 
L_front_hand03_02 0.000000 0.000000 0.000000 0.000000 0.000000 0.000000 10.000000 
R_forearm 0.000000 0.000000 0.000000 0.000000 0.000000 0.000000 10.000000 
R_front_hand 0.000000 0.000000 0.000000 0.000000 0.000000 0.000000 10.000000 
R_weapon_bone 0.000000 0.000000 0.000000 0.000000 0.000000 0.000000 10.000000 
R_front_hand01_01 0.000000 0.000000 0.000000 0.000000 0.000000 0.000000 10.000000 
R_front_hand02_01 0.000000 0.000000 0.000000 0.000000 0.000000 0.000000 10.000000 
R_front_hand03_01 0.000000 0.000000 0.000000 0.000000 0.000000 0.000000 10.000000 
R_front_hand01_02 0.000000 0.000000 0.000000 0.000000 0.000000 0.000000 10.000000 
R_front_hand02_02 0.000000 0.000000 0.000000 0.000000 0.000000 0.000000 10.000000 
R_front_hand03_02 0.000000 0.000000 0.000000 0.000000 0.000000 0.000000 10.000000 
null_rope01_connect 0.000000 0.000000 0.000000 0.000000 0.000000 0.000000 10.000000 
Rope1_Seg01 0.000000 0.000000 0.000000 0.000000 0.000000 0.000000 10.000000 
Rope1_Seg02 0.000000 0.000000 0.000000 0.000000 0.000000 0.000000 10.000000 
Rope1_Seg03 0.000000 0.000000 0.000000 0.000000 0.000000 0.000000 10.000000 
Rope1_Seg04 0.000000 0.000000 0.000000 0.000000 0.000000 0.000000 10.000000 
Rope1_Seg05 0.000000 0.000000 0.000000 0.000000 0.000000 0.000000 10.000000 
Rope1_Seg06 0.000000 0.000000 0.000000 0.000000 0.000000 0.000000 10.000000 
Rope1_Seg07 0.000000 0.000000 0.000000 0.000000 0.000000 0.000000 10.000000 
Rope1_Seg09 0.000000 0.000000 0.000000 0.000000 0.000000 0.000000 10.000000 
L_mid_hand01 0.000000 0.000000 0.000000 0.000000 0.000000 0.000000 10.000000 
L_mid_hand02 0.000000 0.000000 0.000000 0.000000 0.000000 0.000000 10.000000 
L_mid_hand03 0.000000 0.000000 0.000000 0.000000 0.000000 0.000000 10.000000 
null_rope02_connect 0.000000 0.000000 0.000000 0.000000 0.000000 0.000000 10.000000 
Rope2_Seg01 0.000000 0.000000 0.000000 0.000000 0.000000 0.000000 10.000000 
Rope2_Seg02 0.000000 0.000000 0.000000 0.000000 0.000000 0.000000 10.000000 
Rope2_Seg03 0.000000 0.000000 0.000000 0.000000 0.000000 0.000000 10.000000 
Rope2_Seg04 0.000000 0.000000 0.000000 0.000000 0.000000 0.000000 10.000000 
Rope2_Seg05 0.000000 0.000000 0.000000 0.000000 0.000000 0.000000 10.000000 
Rope2_Seg06 0.000000 0.000000 0.000000 0.000000 0.000000 0.000000 10.000000 
Rope2_Seg07 0.000000 0.000000 0.000000 0.000000 0.000000 0.000000 10.000000 
Rope2_Seg09 0.000000 0.000000 0.000000 0.000000 0.000000 0.000000 10.000000 
R_mid_hand01 0.000000 0.000000 0.000000 0.000000 0.000000 0.000000 10.000000 
R_mid_hand02 0.000000 0.000000 0.000000 0.000000 0.000000 0.000000 10.000000 
R_mid_hand03 0.000000 0.000000 0.000000 0.000000 0.000000 0.000000 10.000000 
spine02 0.000000 0.000000 0.000000 0.000000 0.000000 0.000000 10.000000 
spine03 0.000000 0.000000 0.000000 0.000000 0.000000 0.000000 10.000000 
pelvis 0.000000 0.000000 0.000000 0.000000 0.000000 0.000000 10.000000 
null_rope03_connect 0.000000 0.000000 0.000000 0.000000 0.000000 0.000000 10.000000 
null_rope04_connect 0.000000 0.000000 0.000000 0.000000 0.000000 0.000000 10.000000 
Rope3_Seg01 0.000000 0.000000 0.000000 0.000000 0.000000 0.000000 10.000000 
Rope3_Seg02 0.000000 0.000000 0.000000 0.000000 0.000000 0.000000 10.000000 
Rope3_Seg03 0.000000 0.000000 0.000000 0.000000 0.000000 0.000000 10.000000 
Rope3_Seg04 0.000000 0.000000 0.000000 0.000000 0.000000 0.000000 10.000000 
Rope3_Seg05 0.000000 0.000000 0.000000 0.000000 0.000000 0.000000 10.000000 
Rope3_Seg06 0.000000 0.000000 0.000000 0.000000 0.000000 0.000000 10.000000 
Rope3_Seg07 0.000000 0.000000 0.000000 0.000000 0.000000 0.000000 10.000000 
Rope3_Seg08 0.000000 0.000000 0.000000 0.000000 0.000000 0.000000 10.000000 
Rope3_Seg09 0.000000 0.000000 0.000000 0.000000 0.000000 0.000000 10.000000 
R_rear_hand01 0.000000 0.000000 0.000000 0.000000 0.000000 0.000000 10.000000 
R_rear_hand02 0.000000 0.000000 0.000000 0.000000 0.000000 0.000000 10.000000 
R_rear_hand03 0.000000 0.000000 0.000000 0.000000 0.000000 0.000000 10.000000 
Rope4_Seg01 0.000000 0.000000 0.000000 0.000000 0.000000 0.000000 10.000000 
Rope4_Seg02 0.000000 0.000000 0.000000 0.000000 0.000000 0.000000 10.000000 
Rope4_Seg03 0.000000 0.000000 0.000000 0.000000 0.000000 0.000000 10.000000 
Rope4_Seg04 0.000000 0.000000 0.000000 0.000000 0.000000 0.000000 10.000000 
Rope4_Seg05 0.000000 0.000000 0.000000 0.000000 0.000000 0.000000 10.000000 
Rope4_Seg06 0.000000 0.000000 0.000000 0.000000 0.000000 0.000000 10.000000 
Rope4_Seg07 0.000000 0.000000 0.000000 0.000000 0.000000 0.000000 10.000000 
Rope4_Seg08 0.000000 0.000000 0.000000 0.000000 0.000000 0.000000 10.000000 
Rope4_Seg09 0.000000 0.000000 0.000000 0.000000 0.000000 0.000000 10.000000 
L_rear_hand01 0.000000 0.000000 0.000000 0.000000 0.000000 0.000000 10.000000 
L_rear_hand02 0.000000 0.000000 0.000000 0.000000 0.000000 0.000000 10.000000 
L_rear_hand03 0.000000 0.000000 0.000000 0.000000 0.000000 0.000000 10.000000 
#Beginning of Data. Separated by tabs
#Fr	Tx	Ty	Tz	Rx	Ry	Rz	SF
[MASTER]
39 0.000000 0.000000 0.000000 0.001660 0.001660 0.001660 0.000000
40 0.000000 0.000000 0.000000 0.001660 0.001660 0.001660 0.000000
[root]
39 -23.115313 -62.822109 1439.761597 -88.578857 -5.746344 -91.058037 1441.316895
40 -23.115313 -62.822109 1426.779175 -88.440132 -6.436731 -92.132027 1428.348511
[chest]
39 -84.512650 -34.090519 0.000000 -0.307809 -0.743092 156.385437 91.129311
40 -84.512650 -34.090519 0.000000 -0.307809 -0.743092 156.385437 91.129311
[L_mid_tent01]
39 23.228750 24.509907 -223.761200 -11.902478 7.656224 -7.264625 226.294907
40 23.228750 24.509907 -223.761200 -11.825399 10.846096 -6.755708 226.294907
[R_mid_tent01]
39 23.228794 24.509907 226.238495 -160.305862 -8.785480 -10.914973 228.744751
40 23.228794 24.509907 226.238495 -159.904510 -11.597852 -14.131364 228.744751
[spine01]
39 -0.361383 -0.195265 0.000000 0.001815 0.001488 11.320962 0.410763
40 -0.361383 -0.195265 0.000000 0.001815 0.001488 11.320962 0.410763
[Bip01_Neck]
39 165.484543 71.581718 0.000119 175.896118 1.177290 24.871183 180.302734
40 165.484543 71.581718 0.000119 175.896118 1.177290 24.871183 180.302734
[L_humerus]
39 -13.983130 -135.272980 -120.471481 149.628754 9.923232 -156.213852 181.680161
40 -13.983130 -135.272980 -120.471481 149.628754 9.923236 -156.213867 181.680161
[R_humerus]
39 -13.983309 -135.273102 125.287651 -156.699188 -11.743878 -154.898071 184.909012
40 -13.983309 -135.273102 125.287651 -156.699188 -11.743876 -154.898056 184.909012
[weapon_bone]
39 235.964890 -300.705902 0.000000 0.000000 -89.951546 -128.212341 382.234833
40 235.964890 -300.705902 0.000000 0.000000 -89.951546 -128.212341 382.234833
[Bip01_Head]
39 179.663727 77.988945 -1.800940 3.322115 5.965867 -40.746174 195.868774
40 179.663727 77.988945 -1.800941 4.318012 5.884990 -40.733509 195.868774
[eye_left_bone]
39 -24.626970 125.451866 -64.772606 0.000000 -90.000000 -99.840431 143.318359
40 -24.626970 125.451866 -64.772606 0.000000 -90.000000 -99.840431 143.318359
[eye_right_bone]
39 -24.626970 125.451866 64.327362 0.000000 -89.965736 80.156380 143.117676
40 -24.626970 125.451866 64.327362 0.000000 -89.965736 80.156380 143.117676
[L_forearm]
39 322.776093 0.000000 -0.000119 0.000842 -0.002191 -132.067245 322.776093
40 322.776093 0.000000 -0.000119 0.000842 -0.002191 -132.067245 322.776093
[L_front_hand]
39 241.149185 -0.042021 -3.300071 67.767342 -1.502641 -39.931995 241.171753
40 241.149185 -0.042021 -3.300071 68.565636 -1.503567 -39.931599 241.171753
[L_weapon_bone]
39 156.183838 0.000000 0.000000 0.000014 0.000007 0.000001 156.183838
40 156.183838 0.000000 0.000000 0.000014 0.000007 0.000001 156.183838
[L_front_hand01_01]
39 86.095154 20.947098 -0.655860 0.117225 -0.589733 26.432503 88.609184
40 86.095154 20.947098 -0.655860 0.129365 -0.584713 25.219728 88.609184
[L_front_hand02_01]
39 86.935165 -11.437475 24.513514 119.654030 -23.866238 -13.320360 91.046425
40 86.935165 -11.437475 24.513514 119.395058 -22.809282 -12.666165 91.046425
[L_front_hand03_01]
39 86.637497 -14.123976 -20.424902 -120.893997 22.490311 -15.563196 90.126129
40 86.637497 -14.123976 -20.424902 -120.640251 21.448313 -14.890021 90.126129
[L_front_hand01_02]
39 71.020905 -0.000179 0.000030 0.000334 -0.002323 -106.379684 71.020905
40 71.020905 -0.000179 0.000030 0.000334 -0.002323 -106.379684 71.020905
[L_front_hand02_02]
39 71.020927 -0.000119 0.000060 0.000334 -0.002323 -106.379684 71.020927
40 71.020927 -0.000119 0.000060 0.000334 -0.002323 -106.379684 71.020927
[L_front_hand03_02]
39 71.020905 -0.000060 0.000060 0.000334 -0.002323 -106.379684 71.020905
40 71.020905 -0.000060 0.000060 0.000334 -0.002323 -106.379684 71.020905
[R_forearm]
39 322.776428 -0.000060 0.000030 0.244684 0.084396 -126.001312 322.776428
40 322.776428 -0.000060 0.000030 0.244684 0.084396 -126.001312 322.776428
[R_front_hand]
39 238.847015 -0.006795 2.210259 81.671570 0.237024 -48.450836 238.857239
40 238.847015 -0.006795 2.210259 126.431953 0.233774 -48.449886 238.857239
[R_weapon_bone]
39 155.664093 0.002503 -0.000030 0.003487 0.001180 -90.988930 155.664078
40 155.664093 0.002503 -0.000030 0.003487 0.001180 -90.988930 155.664078
[R_front_hand01_01]
39 87.624611 14.231146 22.918642 -122.273354 -32.057194 18.984785 91.683487
40 87.624611 14.231146 22.918642 -120.584465 -27.197083 15.569342 91.683487
[R_front_hand02_01]
39 89.356956 14.367283 -19.491137 123.553848 30.836014 21.685780 92.579636
40 89.356956 14.367283 -19.491137 121.885521 26.044270 18.185982 92.579636
[R_front_hand03_01]
39 87.286232 -22.307278 -0.143439 -0.143726 -0.430309 -36.216854 90.091743
40 87.286232 -22.307278 -0.143439 -0.187915 -0.413531 -30.521236 90.091743
[R_front_hand01_02]
39 71.020905 0.000060 0.000119 0.002323 -0.000334 106.381714 71.020905
40 71.020905 0.000060 0.000119 0.002323 -0.000334 106.381714 71.020905
[R_front_hand02_02]
39 71.020844 -0.000030 -0.000119 0.002323 -0.000334 106.381714 71.020836
40 71.020844 -0.000030 -0.000119 0.002323 -0.000334 106.381714 71.020836
[R_front_hand03_02]
39 71.020905 0.000000 0.000030 0.002323 -0.000334 106.381714 71.020905
40 71.020905 0.000000 0.000030 0.002323 -0.000334 106.381714 71.020905
[null_rope01_connect]
39 328.732483 0.000000 -0.000238 -127.987991 -76.124702 -129.993118 328.732483
40 328.732483 0.000000 -0.000238 -116.907211 -73.120636 -141.334763 328.732483
[Rope1_Seg01]
39 0.000000 0.000000 0.000000 75.083160 -20.596643 -142.405991 0.000000
40 0.000000 0.000000 0.000000 45.316776 -28.821356 -117.476990 0.000000
[Rope1_Seg02]
39 139.999863 -0.000179 0.000000 -7.839767 6.848971 7.917081 139.999863
40 139.999863 -0.000179 0.000000 0.886659 -1.226580 -0.428294 139.999863
[Rope1_Seg03]
39 139.999924 0.000060 -0.000060 -2.716000 1.169169 4.348401 139.999924
40 139.999924 0.000060 -0.000060 7.612910 -5.942765 -7.685086 139.999924
[Rope1_Seg04]
39 139.999924 -0.000060 -0.000119 1.646136 -3.217801 -0.064368 139.999924
40 139.999924 -0.000060 -0.000119 -0.210979 0.007374 0.417085 139.999924
[Rope1_Seg05]
39 139.999832 0.000119 -0.000060 -10.268877 13.667017 13.425277 139.999832
40 139.999832 0.000119 -0.000060 -12.097707 13.536708 15.600061 139.999832
[Rope1_Seg06]
39 139.999954 0.000119 -0.000060 -9.854388 15.732067 21.988323 139.999954
40 139.999954 0.000119 -0.000060 -7.907886 8.649477 16.569029 139.999954
[Rope1_Seg07]
39 139.999985 0.000060 0.000000 -3.183988 4.440378 10.230590 139.999985
40 139.999985 0.000060 0.000000 -2.188097 2.049765 6.075416 139.999985
[Rope1_Seg09]
39 121.602913 0.000119 -0.000089 -89.793175 -1.359789 0.847147 121.602913
40 121.602913 0.000119 -0.000089 -89.793175 -1.359789 0.847147 121.602913
[L_mid_hand01]
39 103.859421 1.038730 8.195221 106.855484 -31.239275 -9.461397 104.187431
40 103.859421 1.038730 8.195221 106.855484 -31.239275 -9.461397 104.187431
[L_mid_hand02]
39 105.572853 -4.139662 -10.864139 -142.331345 25.752670 -28.774628 106.211075
40 105.572853 -4.139662 -10.864139 -142.331345 25.752670 -28.774628 106.211075
[L_mid_hand03]
39 104.641464 17.579376 -3.913581 -16.122810 9.734291 34.223598 106.179977
40 104.641464 17.579376 -3.913581 -16.122810 9.734291 34.223598 106.179977
[null_rope02_connect]
39 328.732849 0.000179 -0.000119 -144.210617 67.943497 -69.659554 328.732849
40 328.732849 0.000179 -0.000119 -136.468384 67.271492 -65.503548 328.732849
[Rope2_Seg01]
39 0.000128 0.000100 -0.000056 99.950485 -26.268639 -139.467178 0.000172
40 0.000128 0.000101 -0.000053 94.713715 -30.497730 -125.973839 0.000171
[Rope2_Seg02]
39 139.999741 -0.000060 -0.000119 -0.366833 16.466484 -4.480041 139.999756
40 139.999741 -0.000060 -0.000119 -0.770585 14.646468 -5.344964 139.999756
[Rope2_Seg03]
39 140.000107 0.000030 0.000000 -1.721154 19.562222 -4.572384 140.000107
40 140.000107 0.000030 0.000000 -1.288869 13.203273 -2.931041 140.000107
[Rope2_Seg04]
39 139.999802 0.000000 -0.000060 -3.498403 17.172005 -2.568440 139.999802
40 139.999802 0.000000 -0.000060 -1.571316 10.078830 -2.013889 139.999802
[Rope2_Seg05]
39 139.999985 -0.000060 0.000119 1.145591 9.643160 -6.114084 139.999985
40 139.999985 -0.000060 0.000119 4.081042 8.063756 -9.381271 139.999985
[Rope2_Seg06]
39 139.999893 -0.000030 -0.000119 6.614105 5.320883 -7.477745 139.999893
40 139.999893 -0.000030 -0.000119 9.717998 5.493256 -10.999149 139.999893
[Rope2_Seg07]
39 139.999893 0.000060 -0.000060 4.485662 3.729756 -4.369699 139.999893
40 139.999893 0.000060 -0.000060 7.250202 2.742272 -6.197617 139.999893
[Rope2_Seg09]
39 121.338966 0.000089 -0.000060 33.793236 -1.359788 -0.847141 121.338966
40 121.338966 0.000089 -0.000060 33.793236 -1.359788 -0.847141 121.338966
[R_mid_hand01]
39 104.680779 11.144459 -10.335981 -41.523792 25.424656 28.595957 105.778534
40 104.680779 11.144459 -10.335981 -41.523792 25.424656 28.595957 105.778534
[R_mid_hand02]
39 104.070427 2.443552 8.231699 72.847389 -32.746803 10.013901 104.424065
40 104.070427 2.443552 8.231699 72.847389 -32.746803 10.013901 104.424065
[R_mid_hand03]
39 106.028137 -11.221827 -5.996406 -167.901306 10.259192 -37.009720 106.788818
40 106.028137 -11.221827 -5.996406 -167.901306 10.259192 -37.009720 106.788818
[spine02]
39 129.756927 0.001550 0.000119 0.001147 -1.797838 -7.854275 129.756927
40 129.756927 0.001550 0.000119 0.001147 -1.797837 -7.854274 129.756927
[spine03]
39 79.115631 0.000000 -0.000119 1.459971 -2.848092 23.765965 79.115631
40 79.115631 0.000000 -0.000119 1.459971 -2.848092 23.765963 79.115631
[pelvis]
39 169.435242 0.051022 0.000000 -0.000005 0.000003 -4.322055 169.435257
40 169.435242 0.051022 0.000000 -0.000005 0.000003 -4.322055 169.435257
[null_rope03_connect]
39 -1.257226 -2.466202 137.391083 39.373569 -85.110558 33.467999 137.418976
40 -1.257226 -2.466202 137.391083 28.404102 -85.608582 45.168102 137.418976
[null_rope04_connect]
39 -1.259640 -2.480268 -137.844437 39.373569 -85.110558 33.467999 137.872513
40 -1.259640 -2.480268 -137.844437 28.404102 -85.608582 45.168102 137.872513
[Rope3_Seg01]
39 0.000000 0.000000 0.000000 -125.511597 -4.839261 -109.044975 0.000000
40 0.000000 0.000000 0.000000 -127.482353 -4.173181 -102.103310 0.000000
[Rope3_Seg02]
39 139.999924 -0.000119 0.000060 -0.402378 -4.045672 -3.839966 139.999924
40 139.999924 -0.000119 0.000060 0.139707 -1.538709 -2.542725 139.999924
[Rope3_Seg03]
39 139.999924 -0.000119 0.000119 -0.259065 -4.980689 -4.825016 139.999924
40 139.999924 -0.000119 0.000119 0.146995 -1.795435 -2.958844 139.999924
[Rope3_Seg04]
39 139.999924 0.000119 0.000000 0.060729 -6.131056 -6.746192 139.999924
40 139.999924 0.000119 0.000000 0.270016 -1.360019 -3.845330 139.999924
[Rope3_Seg05]
39 139.999924 -0.000238 0.000060 0.805450 -7.494239 -10.269838 139.999924
40 139.999924 -0.000238 0.000060 0.536161 -0.657444 -5.141825 139.999924
[Rope3_Seg06]
39 139.999893 -0.000119 -0.000060 1.274964 -7.119345 -3.492534 139.999893
40 139.999893 -0.000119 -0.000060 0.278490 -6.629570 -2.640306 139.999893
[Rope3_Seg07]
39 139.999771 0.000060 -0.000119 1.797043 -5.572435 4.035260 139.999771
40 139.999771 0.000060 -0.000119 0.781435 -10.732314 0.107082 139.999771
[Rope3_Seg08]
39 139.999985 -0.000060 0.000000 1.483573 -4.321178 1.787013 139.999985
40 139.999985 -0.000060 0.000000 1.189626 -6.588082 -0.671220 139.999985
[Rope3_Seg09]
39 90.185997 -0.000179 -0.000060 89.793228 -1.359877 -0.847183 90.185997
40 90.185997 -0.000179 -0.000060 89.793228 -1.359877 -0.847183 90.185997
[R_rear_hand01]
39 103.366196 -6.073594 -10.757982 -161.551193 16.666374 -30.088671 104.101845
40 103.366196 -6.073594 -10.757982 -161.551193 16.666374 -30.088671 104.101845
[R_rear_hand02]
39 100.509819 12.039542 -7.992327 -34.280552 19.289745 28.875523 101.543350
40 100.509819 12.039542 -7.992327 -34.280552 19.289745 28.875523 101.543350
[R_rear_hand03]
39 101.539970 5.215704 5.435467 83.366440 -30.933914 7.284830 101.819031
40 101.539970 5.215704 5.435467 83.366440 -30.933914 7.284830 101.819031
[Rope4_Seg01]
39 0.000000 0.000000 0.000000 39.428020 6.110846 -138.078278 0.000000
40 0.000000 0.000000 0.000000 44.250759 3.675932 -123.595009 0.000000
[Rope4_Seg02]
39 139.999985 0.000060 0.000119 5.776341 10.793927 17.269932 139.999985
40 139.999985 0.000060 0.000119 2.572054 7.893468 12.485409 139.999985
[Rope4_Seg03]
39 139.999924 0.000000 -0.000238 2.281928 10.675406 14.886283 139.999924
40 139.999924 0.000000 -0.000238 0.584933 4.573618 7.638269 139.999924
[Rope4_Seg04]
39 139.999985 0.000000 0.000119 -0.280068 8.110618 13.144757 139.999985
40 139.999985 0.000000 0.000119 -0.048531 2.142784 5.255812 139.999985
[Rope4_Seg05]
39 139.999802 -0.000060 -0.000119 -0.591650 4.086961 4.886396 139.999802
40 139.999802 -0.000060 -0.000119 0.034301 2.519013 2.159374 139.999802
[Rope4_Seg06]
39 139.999924 0.000000 0.000060 0.619529 2.948741 0.170979 139.999924
40 139.999924 0.000000 0.000060 0.358846 4.035999 0.726934 139.999924
[Rope4_Seg07]
39 139.999802 0.000000 0.000000 2.209600 3.342116 -3.561867 139.999802
40 139.999802 0.000000 0.000000 0.924575 6.369308 0.117509 139.999802
[Rope4_Seg08]
39 139.999924 0.000000 0.000119 -0.066540 3.320101 -1.499474 139.999924
40 139.999924 0.000000 0.000119 -0.853274 4.920769 0.841224 139.999924
[Rope4_Seg09]
39 90.185791 0.000060 0.000060 -135.617828 2.228885 0.850567 90.185791
40 90.185791 0.000060 0.000060 -135.617828 2.228885 0.850567 90.185791
[L_rear_hand01]
39 101.696655 -8.392275 -7.654577 -34.454281 -18.946800 151.655121 102.329041
40 101.696655 -8.392275 -7.654577 -34.454281 -18.946800 151.655121 102.329041
[L_rear_hand02]
39 102.726799 -1.568258 5.773216 83.407906 30.330435 172.796509 102.900848
40 102.726799 -1.568258 5.773216 83.407906 30.330435 172.796509 102.900848
[L_rear_hand03]
39 104.552910 9.721220 -10.420293 -161.379868 -16.473232 -150.512238 105.519653
40 104.552910 9.721220 -10.420293 -161.379868 -16.473232 -150.512238 105.519653
